<svg xmlns="http://www.w3.org/2000/svg" xmlns:xlink="http://www.w3.org/1999/xlink" xmlns:inkscape="http://www.inkscape.org/namespaces/inkscape" version="1.1" width="100" height="103" viewBox="0 0 100 103">
<defs>
<clipPath id="clip_1">
<path transform="matrix(1,0,0,-1,-41,202.46799)" d="M41 99.46799H141V202.46799H41Z" clip-rule="evenodd"/>
</clipPath>
<clipPath id="clip_2">
<path transform="matrix(1,0,0,-1,-41,202.46799)" d="M0 300.468H436.538V0H0Z"/>
</clipPath>
</defs>
<g clip-path="url(#clip_1)">
<g inkscape:groupmode="layer" inkscape:label="&#x30EC;&#x30A4;&#x30E4;&#x30FC; 1">
<g clip-path="url(#clip_2)">
<path transform="matrix(1,0,0,-1,5.1557009,69.45198)" d="M0 0C.926-2.632 2.077-5.156 3.429-7.553H86.65C88.001-5.156 89.152-2.632 90.079 0Z" fill="#005398"/>
<path transform="matrix(1,0,0,-1,11.782101,81.95089)" d="M0 0C2.043-2.763 4.381-5.292 6.961-7.553H69.865C72.445-5.292 74.783-2.763 76.826 0Z" fill="#005398"/>
<path transform="matrix(1,0,0,-1,74.9213,94.44978)" d="M0 0H-49.452C-42.24-4.375-33.778-6.894-24.726-6.894-15.675-6.894-7.212-4.375 0 0" fill="#005398"/>
<path transform="matrix(1,0,0,-1,80.4283,47.036195)" d="M0 0C0-6.394-5.183-11.578-11.578-11.578-17.972-11.578-23.155-6.394-23.155 0-23.155 6.394-17.972 11.578-11.578 11.578-5.183 11.578 0 6.394 0 0" fill="#e60027"/>
<path transform="matrix(1,0,0,-1,5.6400988,33.204988)" d="M0 0C-.711 .076-1.154-.143-1.391-.687-1.738-1.484-.991-2.606 .26-3.149 1.561-3.716 2.751-3.519 3.114-2.686 3.35-2.145 3.234-1.667 2.744-1.193L3.681-.007C4.12-.431 4.302-.702 4.448-1.11 4.655-1.735 4.616-2.543 4.329-3.202 4.037-3.872 3.473-4.451 2.833-4.737 1.935-5.116 .792-5.044-.42-4.517-1.539-4.031-2.275-3.352-2.635-2.468-2.933-1.747-2.918-.916-2.596-.176-2.319 .459-1.841 .98-1.257 1.275-.747 1.535-.369 1.577 .342 1.447Z" fill="#e60027"/>
<path transform="matrix(1,0,0,-1,10.882801,27.11348)" d="M0 0 .438 .603C.756 1.042 .867 1.287 .884 1.649 .906 2.053 .748 2.417 .464 2.624 .17 2.837-.249 2.877-.618 2.724-.891 2.611-1.014 2.498-1.303 2.1L-1.852 1.346ZM-2.441 2.911C-1.937 3.605-1.566 3.912-.92 4.144-.092 4.461 .724 4.366 1.373 3.896 2.086 3.378 2.371 2.703 2.337 1.591L5.385 1.199 4.334-.249 1.808 .074 1.149-.833 2.956-2.147 1.978-3.493-3.959 .82Z" fill="#e60027"/>
<path transform="matrix(1,0,0,-1,17.1469,19.955185)" d="M0 0C1.029-1.145 1.861-1.371 2.582-.722 3.285-.089 3.098 .91 2.039 2.086 .974 3.272 .129 3.533-.583 2.892-1.342 2.209-1.154 1.283 0 0M.746 4.694C1.546 4.615 2.323 4.146 3.161 3.215 4.168 2.095 4.6 1.049 4.476 .036 4.397-.61 4.053-1.246 3.51-1.735 2.9-2.283 2.174-2.569 1.459-2.546 .529-2.511-.282-2.043-1.244-.974-1.84-.31-2.357 .585-2.487 1.163-2.688 2.179-2.373 3.129-1.576 3.844-.902 4.453-.046 4.763 .746 4.694" fill="#e60027"/>
<path transform="matrix(1,0,0,-1,25.5924,15.387482)" d="M0 0C.593-.239 1.128-.18 1.748 .184 2.411 .573 2.738 1.237 2.482 1.673 2.343 1.91 2.123 1.985 1.665 1.945 1.353 1.928 1.238 1.9-.48 1.542-1.642 1.306-2.36 1.509-2.777 2.222-3.389 3.265-2.759 4.782-1.379 5.592-.705 5.987 .043 6.184 .65 6.119 1.072 6.073 1.373 5.957 1.924 5.642L.961 4.567C.297 4.827-.107 4.794-.694 4.45-1.368 4.054-1.707 3.461-1.479 3.072-1.368 2.882-1.197 2.815-.892 2.843-.624 2.86-.613 2.866 .45 3.145 .996 3.287 1.901 3.411 2.35 3.394 2.968 3.386 3.529 3.051 3.84 2.521 4.502 1.391 3.877-.084 2.377-.964 1.062-1.736-.108-1.785-1.186-1.117Z" fill="#e60027"/>
<path transform="matrix(1,0,0,-1,33.584604,11.378494)" d="M0 0C.535-.349 1.071-.395 1.75-.159 2.476 .094 2.926 .681 2.76 1.16 2.67 1.418 2.47 1.534 2.012 1.585 1.703 1.629 1.585 1.623-.17 1.605-1.356 1.599-2.02 1.938-2.291 2.717-2.688 3.86-1.774 5.224-.262 5.751 .476 6.008 1.247 6.056 1.83 5.875 2.234 5.747 2.508 5.575 2.986 5.159L1.832 4.292C1.232 4.677 .83 4.722 .186 4.498-.552 4.242-1 3.725-.852 3.3-.78 3.092-.626 2.994-.321 2.961-.055 2.925-.043 2.929 1.054 2.998 1.617 3.03 2.53 2.976 2.967 2.872 3.571 2.745 4.056 2.308 4.258 1.727 4.686 .491 3.786-.834 2.143-1.406 .703-1.909-.454-1.729-1.381-.865Z" fill="#e60027"/>
<path transform="matrix(1,0,0,-1,44.199205,9.220688)" d="M0 0 1.052 .116C1.541 .168 1.578 .174 1.743 .291 2.002 .474 2.157 .789 2.124 1.085 2.068 1.609 1.595 1.878 .868 1.798L-.184 1.684ZM-.325 2.973 .702 3.086C1.266 3.148 1.597 3.483 1.547 3.941 1.52 4.193 1.342 4.429 1.087 4.556 .939 4.627 .786 4.644 .485 4.611L-.492 4.504ZM.285 5.983C1.211 6.085 1.622 6.041 2.107 5.773 2.687 5.461 3.122 4.844 3.186 4.255 3.248 3.685 3.048 3.2 2.554 2.725 3.259 2.426 3.658 1.906 3.736 1.196 3.812 .495 3.494-.192 2.852-.693 2.361-1.079 1.996-1.208 1.119-1.305L-1.462-1.588-2.258 5.704Z" fill="#005398"/>
<path transform="matrix(1,0,0,-1,53.844499,6.877594)" d="M0 0C-.169-1.53 .214-2.303 1.177-2.41 2.116-2.514 2.737-1.71 2.912-.136 3.088 1.447 2.72 2.251 1.769 2.356 .756 2.469 .19 1.714 0 0M3.996 2.562C4.469 1.912 4.636 1.021 4.498-.225 4.333-1.721 3.839-2.738 3.002-3.32 2.467-3.692 1.764-3.857 1.038-3.777 .225-3.686-.471-3.332-.929-2.783-1.521-2.065-1.711-1.149-1.552 .282-1.454 1.167-1.13 2.147-.785 2.629-.161 3.456 .757 3.851 1.821 3.732 2.722 3.633 3.523 3.201 3.996 2.562" fill="#005398"/>
<path transform="matrix(1,0,0,-1,64.3509,8.806793)" d="M0 0 .705-.237C1.218-.412 1.486-.444 1.835-.353 2.228-.254 2.528 .004 2.64 .338 2.757 .681 2.67 1.093 2.415 1.4 2.225 1.627 2.08 1.71 1.615 1.868L.732 2.165ZM2.049 3.193C2.86 2.921 3.264 2.656 3.678 2.11 4.228 1.414 4.381 .608 4.124-.152 3.842-.986 3.284-1.458 2.212-1.756L2.747-4.78 1.053-4.207 .609-1.703-.453-1.343-1.168-3.457-2.743-2.924-.398 4.021Z" fill="#005398"/>
<path transform="matrix(1,0,0,-1,72.8938,14.920883)" d="M0 0 .657-.399C1.744-1.06 2.424-.793 3.31 .662 3.745 1.375 3.943 1.846 3.93 2.188 3.931 2.625 3.677 2.96 3.053 3.339L2.31 3.791ZM3.619 4.655C4.792 3.941 5.217 3.451 5.396 2.584 5.566 1.773 5.36 1.023 4.651-.141 3.804-1.529 3.199-2.086 2.385-2.236 1.561-2.377 .773-2.194-.131-1.644L-2.187-.392 1.627 5.866Z" fill="#005398"/>
<path transform="matrix(1,0,0,-1,86.9431,18.44458)" d="M0 0-.957-1.031-3.487 1.314-4.496 .226-2.659-1.478-3.639-2.535-5.476-.832-6.56-2-3.947-4.424-4.904-5.457-8.755-1.885-3.767 3.494Z" fill="#005398"/>
<path transform="matrix(1,0,0,-1,88.264698,25.769288)" d="M0 0 .434-.604C.751-1.043 .95-1.225 1.287-1.355 1.665-1.502 2.059-1.467 2.345-1.261 2.639-1.05 2.809-.664 2.78-.266 2.757 .028 2.688 .181 2.401 .578L1.857 1.336ZM3.527 1.405C4.027 .71 4.202 .261 4.221-.424 4.262-1.309 3.918-2.054 3.266-2.524 2.553-3.037 1.823-3.097 .777-2.716L-.548-5.486-1.593-4.034-.496-1.738-1.151-.829-2.963-2.132-3.934-.783 2.018 3.5Z" fill="#005398"/>
<path transform="matrix(1,0,0,-1,91.5099,34.40149)" d="M0 0C-.305-.561-.306-1.1-.016-1.757 .295-2.459 .917-2.86 1.38-2.656 1.631-2.545 1.731-2.336 1.743-1.876 1.763-1.564 1.747-1.448 1.586 .301 1.484 1.481 1.768 2.171 2.522 2.504 3.629 2.991 5.063 2.192 5.712 .728 6.028 .013 6.138-.752 6.004-1.347 5.911-1.761 5.761-2.047 5.386-2.557L4.428-1.478C4.762-.848 4.775-.443 4.5 .18 4.183 .895 3.632 1.298 3.22 1.117 3.018 1.029 2.934 .867 2.925 .561 2.911 .292 2.916 .281 3.074-.807 3.152-1.365 3.172-2.279 3.104-2.723 3.026-3.335 2.63-3.854 2.068-4.103 .871-4.63-.524-3.84-1.228-2.25-1.846-.855-1.76 .312-.974 1.306Z" fill="#005398"/>
<path transform="matrix(1,0,0,-1,18.866902,53.093889)" d="M0 0C-.067-.016-.079-.061-.079-.101V-2.407C-.079-3.197-.471-3.343-1.092-3.343-1.49-3.343-1.899-3.258-1.899-3.258L-1.848-2.811C-1.848-2.811-1.523-2.867-1.198-2.867-.722-2.867-.661-2.738-.661-2.268V-.101C-.661-.061-.666-.016-.734 0L-1.025 .056V.437H.291V.056Z" fill="#005398"/>
<path transform="matrix(1,0,0,-1,22.571602,53.20578)" d="M0 0C-.034 .085-.051 .129-.135 .129-.219 .129-.235 .085-.269 0L-.93-1.646H.65ZM.75-2.799 .952-2.755C1.002-2.744 1.041-2.738 1.041-2.687 1.041-2.659 1.036-2.642 1.019-2.598L.829-2.105H-1.115L-1.316-2.609C-1.333-2.648-1.339-2.665-1.339-2.687-1.339-2.738-1.299-2.749-1.244-2.761L-1.047-2.799V-3.18H-2.296V-2.799L-2.038-2.744C-1.955-2.727-1.926-2.687-1.899-2.615L-.784-.016C-.756 .051-.773 .102-.846 .112L-1.142 .163V.549H.358L1.618-2.615C1.663-2.716 1.696-2.727 1.797-2.749L2.033-2.799V-3.18H.75Z" fill="#005398"/>
<path transform="matrix(1,0,0,-1,27.8264,53.149385)" d="M0 0H-1.131V-1.417C-.834-1.479-.414-1.479-.112-1.479 .47-1.479 .734-1.439 .734-.717 .734-.112 .47 0 0 0M.258-1.96H-.05C-.285-1.96-.476-1.949-.476-1.949L-.857-1.686C-.907-1.652-.946-1.624-1.008-1.624-1.131-1.624-1.137-1.697-1.137-1.775V-2.699C-1.137-2.738-1.12-2.783-1.053-2.8L-.767-2.856V-3.237H-2.083V-2.856L-1.792-2.8C-1.725-2.783-1.713-2.738-1.713-2.699V-.045C-1.713-.006-1.725 .04-1.792 .055L-2.083 .112V.493H.246C.963 .493 1.333 .101 1.333-.656 1.333-1.109 1.333-1.96 .258-1.96" fill="#005398"/>
<path transform="matrix(1,0,0,-1,32.516504,53.20578)" d="M0 0C-.034 .085-.051 .129-.135 .129-.219 .129-.236 .085-.269 0L-.93-1.646H.65ZM.75-2.799 .952-2.755C1.002-2.744 1.041-2.738 1.041-2.687 1.041-2.659 1.036-2.642 1.019-2.598L.829-2.105H-1.115L-1.316-2.609C-1.333-2.648-1.339-2.665-1.339-2.687-1.339-2.738-1.299-2.749-1.244-2.761L-1.047-2.799V-3.18H-2.296V-2.799L-2.038-2.744C-1.955-2.727-1.926-2.687-1.899-2.615L-.784-.016C-.756 .051-.773 .102-.846 .112L-1.142 .163V.549H.358L1.618-2.615C1.663-2.716 1.696-2.727 1.797-2.749L2.033-2.799V-3.18H.75Z" fill="#005398"/>
<path transform="matrix(1,0,0,-1,39.574098,53.093889)" d="M0 0C-.067-.016-.079-.061-.079-.101V-3.292H-1.232L-2.733-.101C-2.766-.022-2.789 .006-2.861 .006-2.968 .006-2.979-.05-2.979-.145V-2.754C-2.979-2.794-2.968-2.839-2.9-2.856L-2.615-2.911V-3.292H-3.886V-2.911L-3.595-2.856C-3.528-2.839-3.517-2.794-3.517-2.754V-.101C-3.517-.061-3.528-.016-3.595 0L-3.886 .056V.437H-2.352L-.863-2.71C-.829-2.782-.801-2.816-.734-2.816-.627-2.816-.616-2.749-.616-2.659V-.101C-.616-.061-.627-.016-.694 0L-.986 .056V.437H.291V.056Z" fill="#005398"/>
<path transform="matrix(1,0,0,-1,133.3901,50.64749)" d="M0 0C-.437 1.39-1.207 2.04-2.415 2.04-4.186 2.04-5.676-.269-5.676-3.049-5.676-5.94-4.341-8.003-2.491-8.003-1.284-8.003-.488-7.398 0-6.097L2.979-6.882C2.543-8.048 2.183-8.608 1.541-9.213 .539-10.11-1.002-10.694-2.466-10.694-3.955-10.694-5.497-10.11-6.55-9.147-7.988-7.778-8.784-5.582-8.784-2.892-8.784-.403-8.116 1.525-6.755 2.915-5.65 4.058-4.084 4.708-2.44 4.708-1.027 4.708 .333 4.237 1.361 3.385 2.26 2.645 2.645 1.973 2.979 .538Z" fill="#005398"/>
<path transform="matrix(1,0,0,-1,148.1231,53.673585)" d="M0 0H1.515C2.62 0 3.159 .112 3.776 .515 4.469 .964 4.88 1.659 4.88 2.376 4.88 3.116 4.443 3.856 3.75 4.281 3.236 4.595 2.903 4.663 1.901 4.663H0ZM1.875 7.51C3.622 7.51 4.572 7.263 5.728 6.479 7.243 5.492 8.065 4.035 8.065 2.399 8.065 .605 7.294-.673 5.419-1.95L8.425-7.443H4.778L2.286-2.892H0V-7.443H-3.39V7.51Z" fill="#005398"/>
<path transform="matrix(1,0,0,-1,166.9433,53.92038)" d="M0 0C0-3.138 .95-4.618 2.928-4.618 4.854-4.618 5.933-2.847 5.933 .381 5.933 3.632 5.009 5.179 3.057 5.179 .976 5.179 0 3.52 0 0M7.525 6.098C8.63 4.887 9.169 3.116 9.169 .56 9.169-2.51 8.399-4.685 6.832-6.053 5.83-6.927 4.443-7.421 2.953-7.421 1.284-7.421-.206-6.86-1.258-5.851-2.62-4.528-3.21-2.713-3.21 .224-3.21 2.04-2.774 4.103-2.183 5.156-1.105 6.972 .668 7.981 2.851 7.981 4.7 7.981 6.421 7.286 7.525 6.098" fill="#005398"/>
<path transform="matrix(1,0,0,-1,185.9121,57.19368)" d="M0 0C.796-1.031 1.798-1.479 3.262-1.479 4.829-1.479 6.087-.65 6.087 .381 6.087 .942 5.779 1.301 4.931 1.704 4.366 1.995 4.135 2.063 .745 3.206-1.541 3.991-2.594 5.089-2.594 6.771-2.594 9.236 .077 11.254 3.339 11.254 4.931 11.254 6.447 10.828 7.449 10.088 8.142 9.573 8.553 9.057 9.195 7.936L6.395 7.04C5.497 8.183 4.752 8.542 3.365 8.542 1.772 8.542 .565 7.847 .565 6.927 .565 6.479 .796 6.188 1.362 5.919 1.85 5.672 1.875 5.672 4.033 5.067 5.137 4.753 6.858 4.035 7.628 3.543 8.707 2.892 9.349 1.727 9.349 .471 9.349-2.197 6.73-4.147 3.185-4.147 .077-4.147-2.029-3.026-3.236-.739Z" fill="#005398"/>
<path transform="matrix(1,0,0,-1,204.1767,57.19368)" d="M0 0C.796-1.031 1.798-1.479 3.262-1.479 4.829-1.479 6.087-.65 6.087 .381 6.087 .942 5.779 1.301 4.931 1.704 4.366 1.995 4.135 2.063 .745 3.206-1.541 3.991-2.594 5.089-2.594 6.771-2.594 9.236 .077 11.254 3.339 11.254 4.931 11.254 6.447 10.828 7.449 10.088 8.142 9.573 8.553 9.057 9.195 7.936L6.395 7.04C5.497 8.183 4.752 8.542 3.365 8.542 1.772 8.542 .565 7.847 .565 6.927 .565 6.479 .796 6.188 1.362 5.919 1.85 5.672 1.875 5.672 4.033 5.067 5.137 4.753 6.858 4.035 7.628 3.543 8.707 2.892 9.349 1.727 9.349 .471 9.349-2.197 6.73-4.147 3.185-4.147 .077-4.147-2.029-3.026-3.236-.739Z" fill="#005398"/>
<path transform="matrix(1,0,0,-1,226.80359,58.224184)" d="M0 0H2.157C3.159 0 3.236 0 3.595 .202 4.16 .516 4.546 1.121 4.546 1.726 4.546 2.802 3.647 3.452 2.157 3.452H0ZM0 6.097H2.106C3.262 6.097 4.007 6.703 4.007 7.644 4.007 8.16 3.698 8.675 3.21 8.989 2.927 9.168 2.619 9.236 2.003 9.236H0ZM1.9 12.06C3.801 12.06 4.623 11.881 5.547 11.231 6.652 10.469 7.397 9.124 7.397 7.913 7.397 6.748 6.883 5.806 5.779 4.954 7.14 4.192 7.833 3.048 7.833 1.591 7.833 .156 7.037-1.166 5.624-2.041 4.546-2.713 3.776-2.892 1.977-2.892H-3.314V12.06Z" fill="#005398"/>
<path transform="matrix(1,0,0,-1,246.09299,53.92038)" d="M0 0C0-3.138 .95-4.618 2.928-4.618 4.854-4.618 5.933-2.847 5.933 .381 5.933 3.632 5.009 5.179 3.057 5.179 .976 5.179 0 3.52 0 0M7.525 6.098C8.63 4.887 9.169 3.116 9.169 .56 9.169-2.51 8.399-4.685 6.832-6.053 5.83-6.927 4.443-7.421 2.953-7.421 1.284-7.421-.206-6.86-1.258-5.851-2.62-4.528-3.21-2.713-3.21 .224-3.21 2.04-2.774 4.103-2.183 5.156-1.105 6.972 .668 7.981 2.851 7.981 4.7 7.981 6.421 7.286 7.525 6.098" fill="#005398"/>
<path transform="matrix(1,0,0,-1,267.0904,53.673585)" d="M0 0H1.515C2.62 0 3.159 .112 3.776 .515 4.469 .964 4.88 1.659 4.88 2.376 4.88 3.116 4.443 3.856 3.75 4.281 3.236 4.595 2.903 4.663 1.901 4.663H0ZM1.875 7.51C3.622 7.51 4.572 7.263 5.728 6.479 7.243 5.492 8.065 4.035 8.065 2.399 8.065 .605 7.294-.673 5.419-1.95L8.425-7.443H4.778L2.286-2.892H0V-7.443H-3.39V7.51Z" fill="#005398"/>
<path transform="matrix(1,0,0,-1,287.4907,58.112794)" d="M0 0H1.567C4.161 0 5.06 1.188 5.06 4.663 5.06 6.367 4.906 7.398 4.521 7.981 4.059 8.744 3.262 9.057 1.772 9.057H0ZM1.362 11.949C4.161 11.949 5.419 11.546 6.652 10.223 7.808 8.99 8.245 7.465 8.245 4.686 8.245 1.368 7.782-.246 6.524-1.367 5.24-2.488 3.673-3.004 1.515-3.004H-3.39V11.949Z" fill="#005398"/>
<path transform="matrix(1,0,0,-1,313.77,46.163896)" d="M0 0V-2.869H-7.038V-5.896H-1.927V-8.832H-7.038V-12.083H.231V-14.953H-10.479V0Z" fill="#005398"/>
<path transform="matrix(1,0,0,-1,325.2129,53.673585)" d="M0 0H1.515C2.62 0 3.159 .112 3.776 .515 4.469 .964 4.88 1.659 4.88 2.376 4.88 3.116 4.443 3.856 3.75 4.281 3.236 4.595 2.903 4.663 1.901 4.663H0ZM1.875 7.51C3.622 7.51 4.572 7.263 5.728 6.479 7.243 5.492 8.065 4.035 8.065 2.399 8.065 .605 7.294-.673 5.419-1.95L8.425-7.443H4.778L2.286-2.892H0V-7.443H-3.39V7.51Z" fill="#005398"/>
<path transform="matrix(1,0,0,-1,343.1397,57.19368)" d="M0 0C.796-1.031 1.798-1.479 3.262-1.479 4.829-1.479 6.087-.65 6.087 .381 6.087 .942 5.779 1.301 4.931 1.704 4.366 1.995 4.135 2.063 .745 3.206-1.541 3.991-2.594 5.089-2.594 6.771-2.594 9.236 .077 11.254 3.339 11.254 4.931 11.254 6.447 10.828 7.449 10.088 8.142 9.573 8.553 9.057 9.195 7.936L6.395 7.04C5.497 8.183 4.752 8.542 3.365 8.542 1.772 8.542 .565 7.847 .565 6.927 .565 6.479 .796 6.188 1.362 5.919 1.85 5.672 1.875 5.672 4.033 5.067 5.137 4.753 6.858 4.035 7.628 3.543 8.707 2.892 9.349 1.727 9.349 .471 9.349-2.197 6.73-4.147 3.185-4.147 .077-4.147-2.029-3.026-3.236-.739Z" fill="#005398"/>
</g>
</g>
</g>
</svg>
